<svg xmlns="http://www.w3.org/2000/svg" viewBox="0 0 1080 1920" width="1080" height="1920">
  <!-- Background -->
  <rect width="1080" height="1920" fill="#000000" />

  <!-- Tear Mask / Transition Shape -->
  <path id="tear-mask" d="M 0 0 L 400 0 L 450 150 L 380 300 L 480 450 L 420 600 L 500 750 L 430 900 L 520 1050 L 450 1200 L 550 1350 L 480 1500 L 530 1650 L 460 1800 L 510 1920 L 0 1920 Z" fill="#FFF5DC" />

  <!-- Silhouette -->
  <g id="silhouette" fill="#FFF5DC">
    <!-- Head -->
    <polygon points="600,300 680,280 750,290 780,380 760,450 650,480 620,400" />
    <!-- Torso -->
    <polygon points="550,520 700,500 850,510 830,700 820,950 700,960 580,980 560,750" />
    <!-- Arm L -->
    <polygon points="450,550 530,540 520,650 500,800 420,780 440,660" />
    <!-- Arm R -->
    <polygon points="870,520 950,530 960,640 980,750 900,770 880,650" />
    <!-- Leg L -->
    <polygon points="600,1020 700,1000 690,1200 680,1400 580,1420 590,1220" />
    <!-- Leg R -->
    <polygon points="720,990 820,1010 830,1230 850,1450 750,1430 730,1210" />
  </g>

  <!-- Shapes -->
  <polygon id="shape-orange-1" points="100,100 200,90 300,80 320,160 350,250 220,280 150,300 120,200" fill="#FF4500" />
  <polygon id="shape-mustard-1" points="800,100 900,120 1000,150 980,250 950,350 850,320 750,300 780,200" fill="#E8A317" />
  
  <polygon points="200,1500 300,1480 400,1450 420,1580 450,1700 350,1720 250,1750 220,1620" fill="#FF4500" />
  <polygon points="700,1600 800,1580 900,1550 920,1680 950,1800 850,1820 750,1850 720,1720" fill="#E8A317" />
  <polygon points="800,1100 900,1080 950,1150 920,1250 850,1280 780,1200" fill="#FF4500" />
  <polygon points="150,800 250,780 300,850 280,950 180,980 120,900" fill="#E8A317" />
</svg>