<svg width="24" height="24" viewBox="0 0 24 24" fill="none" xmlns="http://www.w3.org/2000/svg">
<path d="M6.86328 11.9695C6.86328 11.5153 6.96513 11.1112 7.16883 10.7574C7.37253 10.3993 7.65545 10.1219 8.01758 9.9254C8.38424 9.72448 8.79843 9.62402 9.26014 9.62402C9.82597 9.62402 10.3104 9.76816 10.7132 10.0564C11.0567 10.3022 11.3031 10.6241 11.4524 11.0222C11.4923 11.1285 11.4066 11.2357 11.2894 11.2357H10.3574C10.2886 11.2357 10.2269 11.1969 10.1916 11.1398C10.1013 10.9942 9.98321 10.8798 9.83729 10.7968C9.66528 10.6963 9.46837 10.6461 9.24656 10.6461C8.88896 10.6461 8.59925 10.7662 8.37745 11.0064C8.15564 11.2466 8.04474 11.5677 8.04474 11.9695C8.04474 12.3714 8.15564 12.6924 8.37745 12.9326C8.59925 13.1728 8.88896 13.293 9.24656 13.293C9.46837 13.293 9.66528 13.2427 9.83729 13.1423C9.98321 13.0592 10.1013 12.9449 10.1916 12.7992C10.2269 12.7422 10.2886 12.7033 10.3574 12.7033H11.2894C11.4066 12.7033 11.4923 12.8105 11.4524 12.9168C11.3031 13.3149 11.0567 13.6369 10.7132 13.8826C10.3104 14.1665 9.82597 14.3085 9.26014 14.3085C8.79843 14.3085 8.38424 14.2102 8.01758 14.0137C7.65545 13.8127 7.37253 13.5354 7.16883 13.1816C6.96513 12.8278 6.86328 12.4238 6.86328 11.9695Z" fill="black"/>
<path d="M12.0352 11.9695C12.0352 11.5153 12.137 11.1112 12.3407 10.7574C12.5444 10.3993 12.8273 10.1219 13.1895 9.9254C13.5561 9.72448 13.9703 9.62402 14.432 9.62402C14.9979 9.62402 15.4822 9.76816 15.8851 10.0564C16.2285 10.3022 16.4749 10.6241 16.6243 11.0222C16.6641 11.1285 16.5784 11.2357 16.4613 11.2357H15.5293C15.4604 11.2357 15.3987 11.1969 15.3634 11.1398C15.2732 10.9942 15.1551 10.8798 15.0092 10.7968C14.8372 10.6963 14.6402 10.6461 14.4184 10.6461C14.0608 10.6461 13.7711 10.7662 13.5493 11.0064C13.3275 11.2466 13.2166 11.5677 13.2166 11.9695C13.2166 12.3714 13.3275 12.6924 13.5493 12.9326C13.7711 13.1728 14.0608 13.293 14.4184 13.293C14.6402 13.293 14.8372 13.2427 15.0092 13.1423C15.1551 13.0592 15.2732 12.9449 15.3634 12.7992C15.3987 12.7422 15.4604 12.7033 15.5293 12.7033H16.4613C16.5784 12.7033 16.6641 12.8105 16.6243 12.9168C16.4749 13.3149 16.2285 13.6369 15.8851 13.8826C15.4822 14.1665 14.9979 14.3085 14.432 14.3085C13.9703 14.3085 13.5561 14.2102 13.1895 14.0137C12.8273 13.8127 12.5444 13.5354 12.3407 13.1816C12.137 12.8278 12.0352 12.4238 12.0352 11.9695Z" fill="black"/>
<path fill-rule="evenodd" clip-rule="evenodd" d="M4.1377 9.10331C4.1377 7.94458 4.1377 7.36522 4.3714 6.92264C4.57697 6.53334 4.90499 6.21683 5.30845 6.01847C5.76712 5.79297 6.36755 5.79297 7.56842 5.79297H16.4311C17.632 5.79297 18.2324 5.79297 18.6911 6.01847C19.0945 6.21683 19.4226 6.53334 19.6281 6.92264C19.8618 7.36522 19.8618 7.94458 19.8618 9.10331V14.8964C19.8618 16.0551 19.8618 16.6345 19.6281 17.0771C19.4226 17.4664 19.0945 17.7829 18.6911 17.9813C18.2324 18.2068 17.632 18.2068 16.4311 18.2068H7.56842C6.36755 18.2068 5.76712 18.2068 5.30845 17.9813C4.90499 17.7829 4.57697 17.4664 4.3714 17.0771C4.1377 16.6345 4.1377 16.0551 4.1377 14.8964V9.10331ZM7.56842 7.17228H16.4311C17.0551 7.17228 17.4372 7.17335 17.723 7.19589C17.8562 7.20638 17.9367 7.21957 17.9857 7.23069C18.0089 7.23598 18.0232 7.24041 18.031 7.24307C18.0384 7.24563 18.0421 7.24745 18.0421 7.24745C18.1766 7.31357 18.2859 7.41907 18.3545 7.54884C18.3545 7.54884 18.3563 7.5524 18.359 7.55957C18.3618 7.56704 18.3664 7.58086 18.3718 7.60331C18.3834 7.65052 18.397 7.72826 18.4079 7.85674C18.4313 8.13255 18.4324 8.50119 18.4324 9.10331V14.8964C18.4324 15.4985 18.4313 15.8672 18.4079 16.143C18.397 16.2715 18.3834 16.3492 18.3718 16.3964C18.3664 16.4189 18.3618 16.4327 18.359 16.4402C18.3563 16.4473 18.3545 16.4509 18.3545 16.4509C18.2859 16.5807 18.1766 16.6862 18.0421 16.7523L18.0396 16.7534C18.0396 16.7534 18.035 16.7553 18.031 16.7567C18.0232 16.7593 18.0089 16.7638 17.9857 16.769C17.9367 16.7802 17.8562 16.7933 17.723 16.8038C17.4372 16.8264 17.0551 16.8275 16.4311 16.8275H7.56842C6.9444 16.8275 6.56234 16.8264 6.2765 16.8038C6.14335 16.7933 6.06279 16.7802 6.01386 16.769C5.99059 16.7638 5.97628 16.7593 5.96854 16.7567C5.96111 16.7541 5.95741 16.7523 5.95741 16.7523C5.82293 16.6862 5.71359 16.5807 5.64506 16.4509C5.64506 16.4509 5.64318 16.4473 5.64053 16.4402C5.63777 16.4327 5.63317 16.4189 5.62769 16.3964C5.61617 16.3492 5.60251 16.2715 5.59163 16.143C5.56827 15.8672 5.56716 15.4985 5.56716 14.8964V9.10331C5.56716 8.50119 5.56827 8.13255 5.59163 7.85674C5.60251 7.72826 5.61617 7.65052 5.62769 7.60331C5.63317 7.58086 5.63777 7.56704 5.64053 7.55957C5.64318 7.5524 5.64506 7.54884 5.64506 7.54884C5.71359 7.41907 5.82293 7.31357 5.95741 7.24745C5.95741 7.24745 5.96111 7.24563 5.96854 7.24307C5.97628 7.24041 5.99059 7.23598 6.01386 7.23069C6.06279 7.21957 6.14335 7.20638 6.2765 7.19589C6.56234 7.17335 6.9444 7.17228 7.56842 7.17228Z" fill="black"/>
</svg>
