<svg width="14" height="14" viewBox="0 0 14 14" fill="none" xmlns="http://www.w3.org/2000/svg">
<g clip-path="url(#clip0_1632_277)">
<path d="M4.2665 5.75742C4.2665 6.30648 3.82178 6.75121 3.27271 6.75121C2.72365 6.75121 2.27893 6.30648 2.27893 5.75742C2.27893 5.20835 2.72365 4.76363 3.27271 4.76363C3.82178 4.76363 4.2665 5.20835 4.2665 5.75742Z" fill="black"/>
<path d="M0.788398 11.3182C1.06294 11.3182 1.28529 11.0958 1.28529 10.8213V9.33061C1.28529 9.05607 1.06294 8.83372 0.788398 8.83372C0.513858 8.83372 0.291504 9.05607 0.291504 9.33061V10.8213C0.291504 11.0958 0.513858 11.3182 0.788398 11.3182Z" fill="black"/>
<path d="M0.788398 8.33681C1.06294 8.33681 1.28529 8.11446 1.28529 7.83992V6.34924C1.28529 6.0747 1.06294 5.85234 0.788398 5.85234C0.513858 5.85234 0.291504 6.0747 0.291504 6.34924V7.83992C0.291504 8.11446 0.513858 8.33681 0.788398 8.33681Z" fill="black"/>
<path d="M0.788401 5.35545C1.06294 5.35545 1.28529 5.1331 1.28529 4.85856V4.30328C1.28529 4.08961 1.34989 3.88527 1.47225 3.71197C1.63002 3.48712 1.57598 3.1778 1.35176 3.01941C1.12753 2.86165 0.817593 2.91569 0.659827 3.13991C0.418837 3.48214 0.292125 3.88401 0.292125 4.30326V4.85854C0.292125 5.13308 0.514479 5.35544 0.789019 5.35544L0.788401 5.35545Z" fill="black"/>
<path d="M5.3231 3.27279H6.81378C7.08832 3.27279 7.31068 3.05044 7.31068 2.7759C7.31068 2.50136 7.08832 2.279 6.81378 2.279H5.3231C5.04856 2.279 4.82621 2.50136 4.82621 2.7759C4.82621 3.05044 5.04856 3.27279 5.3231 3.27279Z" fill="black"/>
<path d="M2.34174 3.27279H3.83242C4.10696 3.27279 4.32931 3.05044 4.32931 2.7759C4.32931 2.50136 4.10696 2.279 3.83242 2.279H2.34174C2.0672 2.279 1.84484 2.50136 1.84484 2.7759C1.84484 3.05044 2.0672 3.27279 2.34174 3.27279Z" fill="black"/>
<path d="M11.223 6.34113C10.9485 6.34113 10.7261 6.56349 10.7261 6.83803V8.32871C10.7261 8.60325 10.9485 8.8256 11.223 8.8256C11.4976 8.8256 11.7199 8.60325 11.7199 8.32871V6.83803C11.7199 6.56349 11.4976 6.34113 11.223 6.34113Z" fill="black"/>
<path d="M11.223 9.32249C11.0963 9.32249 10.982 9.37094 10.8944 9.4492L9.02549 7.58024C8.25095 6.80571 6.99068 6.80571 6.21553 7.58024L1.49257 12.3032C1.44475 12.2398 1.40313 12.1703 1.37083 12.0957C1.26151 11.8442 0.967719 11.7293 0.716791 11.8392C0.465244 11.9492 0.35033 12.2417 0.460267 12.4933C0.62735 12.8759 0.906231 13.1889 1.25034 13.4019C1.25096 13.4026 1.25158 13.4032 1.2522 13.4032C1.25344 13.4038 1.25468 13.4044 1.25593 13.4051C1.33357 13.4529 1.41369 13.497 1.49754 13.5342C1.75344 13.6485 2.0317 13.7082 2.31616 13.7082H9.695C10.8118 13.7082 11.7198 12.8001 11.7198 11.6834V9.81999C11.7198 9.54545 11.4974 9.3231 11.2229 9.3231L11.223 9.32249Z" fill="black"/>
<path d="M13.5063 2.63565C12.0492 2.23254 11.769 1.95242 11.366 0.493362C11.333 0.374108 11.225 0.291504 11.1014 0.291504C10.9777 0.291504 10.8697 0.374112 10.8368 0.493362C10.4343 1.95237 10.1541 2.23257 8.69701 2.63565C8.57775 2.66857 8.49577 2.77727 8.49577 2.90025C8.49577 3.02386 8.57838 3.13255 8.69701 3.16486C10.1542 3.56733 10.4343 3.84809 10.8368 5.30651C10.8697 5.42576 10.9777 5.50837 11.1014 5.50837C11.225 5.50837 11.333 5.42576 11.366 5.30651C11.7684 3.8475 12.0486 3.5673 13.5063 3.16486C13.6256 3.13194 13.7076 3.02324 13.7076 2.90025C13.7076 2.77665 13.625 2.66796 13.5063 2.63565Z" fill="black"/>
</g>
<defs>
<clipPath id="clip0_1632_277">
<rect width="14" height="14" fill="white"/>
</clipPath>
</defs>
</svg>
